<svg width="294" height="196" viewBox="0 0 294 196" fill="none" xmlns="http://www.w3.org/2000/svg">
<path fill-rule="evenodd" clip-rule="evenodd" d="M135.149 51.5151C135.128 46.794 126.8 41.4851 123.243 38.748C116.209 33.3345 108.893 28.3354 101.645 23.2564C94.3969 18.1774 87.1294 13.1122 80.218 7.53615C75.7305 3.91656 70.4576 -0.160127 67.4141 -5.32861C60.9306 -16.3429 81.3725 -14.7073 86.6676 -14.9482C100.138 -15.5637 115.589 -15.2828 128.216 -21.0185C135.753 -24.4426 138.759 -30.1852 137.14 -38.5547C136.618 -41.2767 135.073 -44.4089 136.382 -47.0606C137.779 -49.8926 140.993 -51.5269 143.661 -52.6228C153.392 -56.6155 164.579 -57.0781 174.875 -57.5793C185.976 -58.13 197.182 -57.9689 208.205 -58.0116C212.879 -58.0295 217.761 -59.8014 222.212 -61.2415C228.047 -63.1291 233.813 -65.2494 239.6 -67.2994C252.331 -71.7988 265.449 -76.5377 278.918 -77.6804C287.354 -78.3964 296.573 -77.4285 303.125 -71.2012C306.415 -68.0746 308.137 -63.4265 310.039 -59.2975C312.342 -54.3094 314.553 -49.2731 317.004 -44.3634C324.9 -28.551 336.174 -13.0992 354.473 -12.3227C357.241 -12.2057 359.96 -12.587 362.715 -12.6586C364.469 -12.7027 366.031 -12.2552 366.683 -10.3181C368.323 -5.45938 363.169 2.21072 361.055 6.06574C356.428 14.5041 351.21 22.5639 346.322 30.8329C343.088 36.3015 337.49 43.7747 337.432 50.4191C337.38 56.3393 344.841 60.6184 348.904 63.5344C352.71 66.2646 359.607 70.0852 360.025 75.6392C360.227 78.3322 358.544 80.564 356.787 82.296C353.707 85.3249 350.159 87.4617 347.388 90.9175C342.844 96.5871 339.048 104.388 339.665 112.028C340.093 117.322 342.955 120.788 346.596 124.102C348.126 125.496 349.368 126.481 349.449 128.743C349.579 132.336 348.246 136.137 347.148 139.467C343.219 151.386 337.638 162.911 331.43 173.672C328.327 179.05 324.976 184.411 320.863 188.999C318.169 192.011 314.536 195.596 310.427 195.592C305.669 195.592 300.635 193.78 296.01 192.426C287.373 189.894 278.84 186.967 270.341 183.964C250.686 177.017 231.216 169.507 211.931 161.434C198.347 155.738 184.475 150.034 171.703 142.462C169.213 140.975 166.862 139.241 164.682 137.284C162.354 135.228 159.464 134.308 156.534 133.623C138.349 129.367 118.426 132.634 100.166 134.683C95.5306 135.202 90.8956 135.724 86.2476 136.087C82.2518 136.4 77.4681 137.296 73.5845 135.95C65.9322 133.299 72.6218 123.531 75.45 119.551C85.4074 105.536 98.2544 93.6793 110.162 81.5746C115.824 75.8099 121.528 70.0604 126.882 63.9695C129.67 60.8029 135.167 55.6537 135.149 51.5151Z" stroke="#99BCC5" stroke-width="0.2"/>
<path fill-rule="evenodd" clip-rule="evenodd" d="M138.581 50.7192C135.528 45.7237 130.174 42.0314 125.729 38.5565C119.332 33.5541 112.734 28.8296 106.236 23.969C100.091 19.3725 93.9338 14.7238 88.2435 9.50389C84.7736 6.32078 80.4201 2.51424 78.7765 -2.19368C75.2114 -12.3981 94.3907 -10.8499 99.1255 -11.1169C110.896 -11.7774 124.242 -11.9288 135.132 -17.3014C141.932 -20.6566 144.725 -26.2205 143.275 -33.945C142.774 -36.6176 141.87 -38.8993 143.014 -41.5581C144.336 -44.6352 147.378 -46.5536 150.166 -47.9078C158.901 -52.1506 169.225 -53.0519 178.693 -53.802C188.475 -54.5768 198.666 -55.1231 208.133 -54.5561C211.919 -54.3304 216.277 -55.6117 220.023 -56.5943C225.788 -58.1081 231.494 -59.8544 237.23 -61.4783C248.887 -64.7812 260.848 -67.9629 272.975 -68.3248C281.73 -68.5863 290.859 -67.1689 298.143 -61.6903C305.526 -56.1346 308.801 -47.5225 312.895 -39.3355C319.965 -25.1815 329.514 -7.97228 345.871 -4.98183C348.351 -4.52769 350.735 -4.77402 353.213 -4.66255C354.487 -4.60612 355.937 -4.42723 356.583 -3.10197C358.261 0.338496 353.664 6.62904 352.117 9.26443C347.843 16.5472 343.038 23.4735 338.559 30.6159C335.002 36.2872 330.493 42.5887 329.117 49.3114C327.448 57.4694 338.357 63.2742 342.194 69.0184C348.845 78.9792 336.243 84.6546 330.031 89.4038C322.897 94.8562 317.008 104.803 323.403 113.239C325.85 116.465 328.86 118.388 329.953 122.597C331.661 129.181 330.369 136.705 328.983 143.213C326.894 152.996 323.589 162.673 319.095 171.515C315.876 177.846 310.536 187.772 302.715 187.028C297.45 186.531 292.098 184.716 286.972 183.111C279.296 180.709 271.717 177.972 264.178 175.129C246.775 168.584 229.564 161.367 212.692 153.429C201.179 148.011 169.066 125.87 166.65 125.08C159.445 122.727 151.254 123.141 143.826 123.506C133.945 123.99 124.114 125.245 114.291 126.408C109.615 126.958 104.915 127.631 100.214 127.903C96.8684 128.095 92.4743 128.26 89.5437 126.208C83.8233 122.205 90.1964 113.045 92.832 109.17C100.906 97.2893 111.12 87.001 120.696 76.4814C125.396 71.3166 130.167 66.16 134.433 60.581C136.154 58.3282 140.467 53.8046 138.581 50.7192Z" stroke="#99BCC5" stroke-width="0.2"/>
<path fill-rule="evenodd" clip-rule="evenodd" d="M142.803 48.1572C134.468 38.1605 122.963 30.7257 113.035 22.3768C108.051 18.1851 103.037 13.8792 98.7384 8.88642C96.5025 6.29021 93.7106 3.00707 93.2799 -0.611928C92.1287 -10.2933 109.415 -8.98422 114.589 -9.35177C124.592 -10.0648 135.893 -10.6058 144.968 -15.5463C150.513 -18.5665 153.243 -23.5236 152.207 -30.0389C151.748 -32.9297 151.032 -35.3854 152.207 -38.2239C153.397 -41.0996 155.877 -43.1287 158.389 -44.6498C165.605 -49.0245 174.574 -50.4231 182.699 -51.4652C192.23 -52.6789 201.833 -53.1528 211.431 -52.883C219.836 -52.6504 228.201 -55.2673 236.409 -56.9921C247.281 -59.2758 258.351 -61.2705 269.477 -60.969C278.264 -60.7295 287.12 -58.8477 294.631 -53.8466C302.264 -48.7533 306.853 -41.1299 310.991 -32.9035C317.246 -20.4676 325.04 -3.8028 338.762 0.920208C340.758 1.60849 342.618 1.6842 344.676 1.80396C345.676 1.86178 346.967 1.87968 347.463 2.97956C348.656 5.62808 344.246 10.7627 343.015 12.5522C339.086 18.265 334.827 23.7203 330.8 29.3574C327.041 34.62 322.947 40.1043 320.612 46.2713C316.896 56.0931 328.776 61.8362 328.443 71.1955C328.236 77.006 322.961 81.1729 318.784 84.0554C313.642 87.6001 306.237 89.9306 303.663 96.3991C301.746 101.217 304.754 104.021 307.071 107.677C310.997 113.872 311.265 122.269 310.856 129.44C310.306 139.129 308.153 148.962 304.49 157.868C302.829 161.906 300.796 166.106 297.802 169.242C294.997 172.181 292.342 172.934 288.593 172.332C277.118 170.487 265.531 165.346 254.527 160.754C240.7 154.983 227.065 148.612 213.836 141.445C204.816 136.556 195.592 131.385 187.674 124.631C185.611 122.871 183.497 120.957 181.989 118.635C180.848 116.889 180.364 115.448 178.441 114.451C172.742 111.499 164.816 112.271 158.71 112.578C148.947 113.067 139.231 114.367 129.527 115.539C123.865 116.227 113.199 118.393 108.678 113.199C104.775 108.714 109.484 101.067 111.89 97.1163C117.975 87.1252 125.802 78.3564 133.065 69.3275C136.393 65.1895 139.852 61.0199 142.601 56.4194C143.303 55.2465 144.428 53.6924 144.621 52.2676C144.838 50.635 143.826 49.3892 142.803 48.1572Z" stroke="#99BCC5" stroke-width="0.2"/>
<path fill-rule="evenodd" clip-rule="evenodd" d="M143.52 50.4843C135.818 41.6454 126.539 34.3839 118.27 26.1126C114.563 22.4041 110.819 18.5136 107.994 13.9895C106.474 11.5566 104.861 8.49413 105.28 5.47023C106.482 -3.20883 120.699 -2.42496 126.443 -2.9333C134.978 -3.67998 144.783 -4.43217 152.33 -9.11198C157.273 -12.1772 159.127 -16.7041 158.204 -22.5425C157.213 -28.8052 159.429 -33.3514 164.47 -36.845C170.791 -41.2218 178.77 -43.0058 186.109 -44.2732C194.951 -45.7929 203.905 -46.4666 212.862 -46.2859C221.573 -46.1096 230.013 -47.6498 238.667 -48.6513C250.14 -49.978 261.982 -50.6324 273.326 -47.9129C283.203 -45.5448 292.124 -40.3263 298.812 -32.2562C305.797 -23.8333 309.255 -13.2214 314.927 -3.90315C318.465 1.90907 323.398 9.59761 330.009 11.8569C332.213 12.6105 336.232 11.5938 334.47 15.301C333.464 17.4212 331.58 19.281 330.092 21.014C327.688 23.8148 325.203 26.5383 322.758 29.3005C317.547 35.1885 311.966 41.2018 308.06 48.174C303.139 56.9523 310.455 63.7082 309.563 72.609C309.084 77.3991 305.927 81.222 302.588 84.2252C300.428 86.1704 298.064 87.8553 295.65 89.4271C293.129 91.0693 290.146 92.3202 287.948 94.4431C284.815 97.4642 286.175 101.041 286.762 104.946C287.796 111.81 288.024 118.782 287.439 125.704C286.723 134.189 285.046 142.916 281.512 150.627C280.137 153.629 278.396 156.811 275.81 158.824C273.224 160.837 270.549 160.699 267.586 160.093C258.796 158.302 250.025 154.134 241.687 150.185C231.252 145.24 221.021 139.715 211.251 133.429C204.508 129.089 197.742 124.401 192.1 118.517C190.459 116.805 188.897 114.971 187.635 112.924C186.768 111.52 186.304 109.709 185.048 108.653C181.118 105.359 173.23 106.343 168.622 106.535C159.425 106.916 150.373 108.73 141.188 109.171C136.175 109.412 128.324 110.019 124.643 105.515C121.181 101.282 124.317 94.6139 126.386 90.5348C130.452 82.5142 135.915 75.3684 140.812 67.9127C142.825 64.8447 145.031 61.6348 146.335 58.1315C147.495 55.0098 145.493 52.7505 143.52 50.4843Z" stroke="#99BCC5" stroke-width="0.2"/>
<path fill-rule="evenodd" clip-rule="evenodd" d="M145.414 50.6291C139.283 42.8511 131.893 35.9467 125.718 28.0422C122.103 23.4131 115.879 15.631 118.674 9.1049C121.741 1.9336 132.43 1.73827 138.609 1.1605C145.963 0.472671 154.599 -0.466901 160.893 -4.94466C162.883 -6.36021 164.579 -8.23386 165.298 -10.7018C166.067 -13.343 165.226 -15.6541 165.116 -18.2982C164.887 -23.8448 168.025 -28.2978 172.178 -31.3559C178.048 -35.6796 185.388 -37.7238 192.32 -39.149C200.175 -40.7564 208.16 -41.5489 216.16 -41.5151C223.807 -41.4876 231.372 -41.6664 239.026 -41.8728C249.036 -42.1479 259.187 -41.7036 268.896 -38.8986C278.461 -36.1335 287.157 -30.9514 293.988 -23.3289C300.653 -15.8908 305.149 -6.79906 309.087 2.46185C311.321 7.71823 315.096 15.5732 320.426 18.2282C322.796 19.4099 325.121 19.3288 322.601 22.402C319.428 26.2717 315.151 29.3766 311.475 32.6864C306.173 37.4627 300.737 42.3325 296.287 48.0112C293.445 51.6374 292.178 55.1563 292.374 59.8515C292.525 63.4282 293.211 66.9677 292.864 70.5582C292.051 78.9855 285.76 84.7646 280.199 90.1461C276.621 93.6073 273.353 96.2472 271.512 101.171C269.333 106.99 268.419 113.32 266.963 119.362C265.364 125.997 263.517 132.899 260.027 138.743C256.919 143.945 253.141 146.278 247.485 144.877C238.663 142.692 229.969 137.31 222.137 132.332C214.166 127.267 206.332 121.572 199.727 114.609C196.161 110.85 193.727 106.435 190.56 102.396C186.576 97.3257 177.564 99.2461 172.208 99.6753C163.318 100.388 135.343 105.72 137.924 88.45C139.002 81.2415 143.245 74.5889 146.348 68.2278C147.634 65.5879 149.495 62.4198 149.786 59.3947C150.103 56.1 147.257 52.9704 145.414 50.6291Z" stroke="#99BCC5" stroke-width="0.2"/>
<path fill-rule="evenodd" clip-rule="evenodd" d="M148.651 51.2895C143.966 44.2411 138.359 37.5822 134.339 29.9695C131.731 25.0393 129.171 18.452 132.535 13.2355C136.332 7.34879 144.704 5.97654 150.856 5.22642C157.194 4.45427 164.76 3.80463 169.94 -0.658945C171.589 -2.08074 172.947 -3.99803 173.2 -6.29382C173.444 -8.49602 172.755 -10.6982 172.984 -12.9403C173.495 -17.9751 176.388 -22.1235 180.118 -25.1322C191.153 -34.0332 207.577 -36.0125 220.891 -36.2451C227.555 -36.3607 234.413 -35.7537 241.121 -35.3188C249.824 -34.7545 258.54 -33.5433 266.841 -30.624C284.489 -24.4193 296.318 -10.6583 304.579 6.46516C307.179 11.855 309.169 17.6867 313.243 22.0182C315.344 24.2548 314.885 25.861 312.737 27.9008C309.38 31.0885 305.284 33.5246 301.558 36.1852C296.258 39.9688 290.844 43.8089 286.157 48.3413C282.925 51.4657 280.632 54.4758 279.936 59.161C279.439 62.5014 279.555 65.9052 279.256 69.2663C278.688 75.6513 276.741 81.9881 273.295 87.2844C270.557 91.4823 267.297 95.2976 263.928 98.9354C259.548 103.671 255.844 108.483 252.518 114.104C248.108 121.545 241.912 135.27 231.525 131.638C220.069 127.63 209.332 117.446 201.982 107.579C199.514 104.266 197.487 100.203 194.159 97.7599C189.175 94.1084 184.119 94.2364 178.191 94.2516C169.317 94.2722 150.007 96.3051 149.798 82.2771C149.716 76.7193 151.995 71.4644 153.086 66.1185C154.317 60.1313 151.85 56.093 148.651 51.2895Z" stroke="#99BCC5" stroke-width="0.2"/>
<path fill-rule="evenodd" clip-rule="evenodd" d="M152.14 51.9178C147.506 42.7314 137.115 27.6363 145.018 17.4211C149.193 12.0226 156.577 9.9939 162.771 8.78492C167.756 7.807 173.768 7.43977 177.534 3.29428C180.302 0.246375 179.073 -4.18932 180.134 -8.0047C181.45 -12.7347 184.472 -16.6051 188.185 -19.5141C198.56 -27.6442 212.987 -30.1392 225.468 -30.6701C238.43 -31.2203 252.713 -28.6469 264.911 -23.6968C280.12 -17.5226 291.514 -5.83156 299.483 8.97335C300.953 11.7063 302.289 14.5107 303.701 17.2767C304.649 19.1321 306.055 20.927 306.803 22.8787C308.048 26.133 306.581 28.793 304.23 30.9139C300.849 33.9673 296.695 36.1404 292.84 38.4319C287.568 41.5678 282.179 44.6474 277.275 48.3266C273.979 50.8023 270.53 53.4692 269.351 57.7647C268.546 60.6943 268.379 63.7972 268.407 66.8314C268.47 73.337 268.146 78.598 265.268 84.5563C260.533 94.3382 253.25 103.134 245.557 110.452C239.52 116.196 229.966 125.118 221.169 121.278C213.276 117.84 208.659 109.609 203.459 102.955C200.931 99.7202 198.091 96.7658 194.753 94.4647C190.546 91.564 186.585 90.3467 181.601 89.8722C173.211 89.0731 160.56 88.8654 157.966 78.2473C157.009 74.3287 157.555 70.2699 157.053 66.3004C156.397 61.0519 154.478 56.5515 152.14 51.9178Z" stroke="#99BCC5" stroke-width="0.2"/>
<path fill-rule="evenodd" clip-rule="evenodd" d="M156.959 52.2581C153.659 42.2065 149.324 29.5386 157.294 20.605C161.154 16.2773 166.584 13.858 171.84 12.0501C175.603 10.7544 181.58 10.373 183.888 6.3895C185.582 3.458 185.817 -0.586072 187.35 -3.72687C189.457 -8.04495 192.649 -11.6016 196.393 -14.3858C206.148 -21.6409 218.853 -24.4443 230.439 -25.2471C255.615 -26.9889 281.231 -13.1162 294.702 9.70792C298.719 16.5114 303.904 23.7527 297.413 30.7035C290.326 38.2863 279.649 41.8388 271.191 47.2268C267.959 49.2839 263.84 51.7569 262.037 55.4815C260.952 57.7204 260.878 60.5294 260.828 62.9941C260.698 69.2716 260.204 74.917 257.812 80.7745C254.117 89.8265 248.225 98.1777 241.549 105.018C235.726 110.983 227.422 117.993 218.966 113.693C212.483 110.388 208.371 103.374 203.333 98.2038C197.727 92.4455 190.794 88.5652 183.18 86.6692C175.773 84.8296 167.649 83.589 163.746 75.7735C162.407 73.0926 161.008 69.6213 160.506 66.654C159.696 61.7616 158.509 56.947 156.959 52.2581Z" stroke="#99BCC5" stroke-width="0.2"/>
<path fill-rule="evenodd" clip-rule="evenodd" d="M162.331 52.3288C160.805 42.1788 160.635 31.5951 167.728 23.5954C171.038 19.8633 175.222 17.2119 179.454 14.8096C182.567 13.042 185.782 11.5511 188.107 8.65325C190.261 5.97016 191.899 2.8548 193.978 0.101505C196.722 -3.54721 200.004 -6.70578 203.7 -9.25282C212.964 -15.6253 224.233 -18.6058 235.015 -19.6397C240.234 -20.1421 245.895 -20.4037 251.079 -19.0339C256.085 -17.7123 261.035 -15.6226 265.639 -13.1859C275.424 -8.01109 283.905 -0.432637 290.053 9.14884C294.269 15.721 296.549 22.1114 291.089 28.7785C284.935 36.2936 275.285 40.4401 267.331 45.3175C261.876 48.6628 255.762 51.942 254.743 59.051C253.931 64.7077 253.272 70.0766 251.173 75.4235C248.048 83.3103 243.454 90.4546 237.663 96.4325C232.367 101.879 225.667 106.5 218.092 103.591C212.09 101.282 207.433 96.1104 202.189 92.4127C196.345 88.2828 189.924 86.0058 183.163 84.1748C177.087 82.5229 171.365 79.9843 167.438 74.5947C166.634 73.4934 165.79 72.2944 165.17 71.0623C164.38 69.4901 164.441 67.9318 164.286 66.1697C163.881 61.5193 163.021 56.9227 162.331 52.3288Z" stroke="#99BCC5" stroke-width="0.2"/>
<path fill-rule="evenodd" clip-rule="evenodd" d="M168.255 51.4993C168.386 41.8583 170.583 32.7467 176.602 25.2333C179.175 22.0192 182.248 19.3717 185.079 16.4265C187.359 14.0521 189.513 11.8459 192.134 9.88928C198.353 5.25629 203.406 -0.739014 210.014 -4.86458C218.836 -10.38 228.94 -13.4287 238.967 -14.6476C243.862 -15.2433 248.92 -15.4515 253.873 -14.7786C258.127 -14.2009 262.202 -12.1726 265.981 -10.0974C273.389 -6.03247 280.581 -0.255031 285.391 7.05433C295.995 23.1691 275.088 34.8853 264.357 41.7466C259.422 44.9028 251.882 48.5582 249.86 54.81C248.415 59.2761 247.535 63.8181 245.674 68.1463C240.675 79.7702 230.527 93.4416 217.005 91.6215C211.218 90.8438 205.944 87.6849 200.542 85.5642C194.98 83.38 189.239 82.1625 183.458 80.8264C178.055 79.5785 173.748 77.8025 170.258 73.0413C168.59 70.7676 168.738 68.0457 168.589 65.2562C168.346 60.6743 168.196 56.0661 168.255 51.4993Z" stroke="#99BCC5" stroke-width="0.2"/>
<path fill-rule="evenodd" clip-rule="evenodd" d="M173.649 50.2644C175.822 35.7122 183.891 19.8252 195.755 11.374C209.71 1.43262 224.829 -6.93878 241.503 -9.34535C249.234 -10.4613 257.702 -11.0103 264.996 -7.3612C270.548 -4.58587 276.996 -0.437326 280.051 5.39679C287.526 19.667 270.9 31.027 261.428 37.6289C256.328 41.183 249.837 44.6463 245.993 49.8365C243.763 52.8457 242.625 56.8264 240.824 60.1315C235.368 70.1472 226.387 78.2255 215.199 79.6702C210.026 80.3376 204.816 79.512 199.682 78.8557C194.427 78.1842 189.107 77.8196 183.884 76.8825C179.715 76.134 174.802 74.8667 173.267 70.1595C171.331 64.2277 172.763 56.2072 173.649 50.2644Z" stroke="#99BCC5" stroke-width="0.2"/>
<path fill-rule="evenodd" clip-rule="evenodd" d="M178.939 47.9267C182.108 34.2451 188.817 20.8996 200.096 12.7319C206.078 8.40094 213.021 5.41123 219.687 2.45733C227.244 -0.890421 235.139 -3.48902 243.203 -4.778C253.243 -6.38371 269.503 -7.83105 274.749 4.23931C279.955 16.2202 266.799 26.8239 259.019 32.8667C254.031 36.7377 248.693 40.2907 243.927 44.5225C241.343 46.8168 239.352 49.4677 237.165 52.1586C231.121 59.6142 222.504 65.5165 213.722 68.6674C205.21 71.7218 194.68 73.0741 185.694 72.0647C181.817 71.6309 179.046 70.167 177.874 66.0054C176.249 60.2202 177.629 53.5784 178.939 47.9267Z" stroke="#99BCC5" stroke-width="0.2"/>
<path fill-rule="evenodd" clip-rule="evenodd" d="M184.195 44.2417C187.343 32.1956 194.132 21.1931 204.035 13.9632C215.136 5.85841 229.43 1.35483 242.568 -0.93536C249.551 -2.15177 264.684 -5.4499 268.244 3.98924C271.803 13.4284 261.513 22.7304 255.591 27.8511C248.403 34.0565 240.653 40.048 232.912 45.6158C226.187 50.4567 219.011 55.406 211.726 59.1444C207.618 61.2651 203.338 62.9967 198.938 64.3186C195.679 65.2895 191.536 66.7377 188.12 66.0149C179.503 64.1896 182.69 50.0014 184.195 44.2417Z" stroke="#99BCC5" stroke-width="0.2"/>
<path fill-rule="evenodd" clip-rule="evenodd" d="M190.683 40.6344C197.59 17.8538 219.471 6.64987 240.539 2.74466C245.434 1.83816 259.158 -1.43016 261.895 5.52879C264.546 12.2759 256.113 20.2775 252.165 24.0686C239.93 35.8158 224.815 44.5259 210.491 53.1548C206.02 55.8481 197.957 61.6929 192.411 58.9968C186.39 56.0641 189.253 45.3581 190.683 40.6344Z" stroke="#99BCC5" stroke-width="0.2"/>
<path fill-rule="evenodd" clip-rule="evenodd" d="M197.757 36.2499C203.763 19.4737 221.232 9.85184 237.293 6.67989C241.227 5.90376 251.218 3.4873 254.198 8.16885C256.955 12.4995 250.375 18.7746 247.913 21.2681C242.433 26.8207 235.938 31.395 229.521 35.7917C223.588 39.8595 217.591 44.0291 211.349 47.4694C208.061 49.2803 201.894 53.1445 198.157 50.3482C194.135 47.34 196.424 39.975 197.757 36.2499Z" stroke="#99BCC5" stroke-width="0.2"/>
<path fill-rule="evenodd" clip-rule="evenodd" d="M205.553 31.3483C210.131 20.3928 222.391 13.2786 233.206 10.9145C236.116 10.2798 242.406 8.63312 244.861 11.5589C247.121 14.2534 243.478 18.2036 241.862 20.0279C234.697 28.1141 224.205 35.337 214.592 39.7732C212.175 40.8885 207.83 43.0777 205.344 40.8265C202.793 38.5148 204.501 33.8638 205.553 31.3483Z" stroke="#99BCC5" stroke-width="0.2"/>
<path fill-rule="evenodd" clip-rule="evenodd" d="M213.823 26.7465C216.402 21.3064 223.144 17.202 228.728 15.8955C232.659 14.9768 237.383 15.7704 233.958 20.5058C230.555 25.2051 224.241 29.4971 218.89 31.3999C214.808 32.851 211.608 31.4194 213.823 26.7465Z" stroke="#99BCC5" stroke-width="0.2"/>
<path fill-rule="evenodd" clip-rule="evenodd" d="M4.64531 64.4252C4.47987 53.6775 -0.932751 42.5076 1.74034 31.5564C3.93534 22.5621 14.9859 21.8112 21.6152 17.7363C26.8832 14.4989 29.8729 8.76409 32.7218 3.26165C35.2816 -1.6783 37.5808 -6.76678 40.2773 -11.6256C42.0229 -14.7667 45.0204 -20.9348 48.806 -21.0461C52.43 -21.1534 55.7531 -16.3469 57.8582 -13.5056C60.603 -9.80198 63.0364 -5.8536 65.7016 -2.09088C70.1933 4.25597 75.5824 8.95388 81.7532 13.4001C88.7755 18.4593 95.9137 23.3456 103.168 28.0591C108.509 31.5399 113.886 34.9945 119.02 38.8191C122.24 41.219 129.348 45.7216 129.38 50.1458C129.396 52.2568 127.5 54.5948 126.223 56.2822C124.06 59.1387 121.595 61.7503 119.123 64.3055C114.518 69.0653 109.718 73.6092 104.969 78.2081C98.8065 84.1767 92.9197 90.0478 87.5019 96.8237C81.9004 103.838 76.549 111.082 71.0882 118.228C67.3899 123.069 63.6955 128.506 58.3611 131.476C51.6796 135.189 46.1954 131.274 39.4384 131.229C33.6259 131.189 34.0545 116.974 33.3159 113.022C32.5746 109.021 30.9411 105.297 30.308 101.286C29.5186 96.2805 29.5081 91.159 29.314 86.0994C29.0783 79.9107 28.9845 74.019 22.7173 71.6591C19.1506 70.3182 15.2921 70.0363 11.6003 69.2331C9.20857 68.7119 4.69742 67.8207 4.64531 64.4252Z" stroke="#99BCC5" stroke-width="0.2"/>
<path fill-rule="evenodd" clip-rule="evenodd" d="M7.50284 62.5132C6.89356 53.504 3.29404 41.9729 6.69787 32.673C9.60593 24.7258 18.7006 23.6955 24.8247 19.5208C29.8802 16.0774 32.1307 10.4427 34.6578 4.90713C36.6852 0.466564 38.6513 -4.0167 40.9527 -8.3154C42.6488 -11.4833 45.2385 -16.8315 48.7649 -17.4871C51.9352 -18.0766 55.3352 -13.3551 57.1147 -10.953C59.7109 -7.4463 61.9315 -3.63793 64.225 0.0905449C68.2551 6.63982 72.3817 12.5294 78.28 17.3404C84.2044 22.1722 90.6859 25.7849 97.2365 29.5451C102.361 32.4871 107.46 35.5145 112.329 38.911C115.956 41.4398 121.17 44.6766 122.83 49.186C124.144 52.7534 117.481 58.6732 115.516 60.7626C111.472 65.0586 107.186 69.0914 102.892 73.0995C97.6579 77.9836 92.2567 82.2547 87.6343 87.8261C79.3668 97.7871 72.4561 110.191 61.818 117.595C55.4017 122.06 48.2614 123.202 41.1249 122.534C38.2991 122.269 37.6206 118.059 37.2645 115.603C36.6722 111.523 36.5978 107.373 36.1425 103.277C35.7159 99.4426 34.7687 95.7996 34.0055 92.0394C33.2331 88.2297 33.0165 84.3263 32.4477 80.4904C32.0955 78.1089 31.7471 75.3377 30.2063 73.4232C28.612 71.4412 25.9819 70.6107 23.6831 69.9798C19.366 68.8063 7.93337 68.8711 7.50284 62.5132Z" stroke="#99BCC5" stroke-width="0.2"/>
<path fill-rule="evenodd" clip-rule="evenodd" d="M11.1806 58.742C10.156 50.4722 8.72144 40.1721 12.8958 32.553C16.3078 26.3231 23.5849 24.9792 28.7826 20.92C33.1057 17.5444 34.7387 12.1756 36.8846 7.18651C38.6454 3.09426 40.4154 -1.01586 42.5496 -4.91004C44.1681 -7.86334 46.254 -11.8676 49.4677 -12.8979C52.2153 -13.7782 55.3193 -9.8345 56.8426 -7.87159C59.4362 -4.52626 61.5508 -0.777908 63.651 2.92094C67.0866 8.97334 70.248 15.4384 75.1377 20.3615C79.889 25.1388 85.5331 27.9586 91.2829 31.1293C95.687 33.5585 100.064 36.0812 104.213 38.9781C107.399 41.201 111.348 43.8352 113.008 47.5341C114.444 50.7239 110.758 54.4998 108.916 56.7502C105.875 60.4642 102.499 63.8714 99.1708 67.2924C95.5787 70.983 91.6001 74.3875 88.1241 78.1689C80.8144 86.1264 74.9745 94.9368 65.9653 101.033C60.1306 104.982 52.2793 108.57 45.3821 107.925C40.4219 107.46 40.7483 95.8749 40.2718 92.1733C39.4887 86.1209 37.9758 79.7617 35.5728 74.1866C33.5091 69.4094 28.6051 67.9362 24.094 66.8646C21.268 66.192 18.3063 65.8288 15.573 64.7889C12.4089 63.5839 11.6101 62.2084 11.1806 58.742Z" stroke="#99BCC5" stroke-width="0.2"/>
<path fill-rule="evenodd" clip-rule="evenodd" d="M14.6112 54.8655C14.0011 47.8738 14.1383 39.606 18.0902 33.5579C21.5535 28.2604 27.7197 26.8656 32.1053 22.6924C35.5281 19.4366 36.8724 14.128 38.7131 9.82232C40.9628 4.55786 44.1151 -5.1654 49.7901 -7.14647C55.0693 -8.9882 60.5902 2.77682 62.5015 6.28508C65.5271 11.8379 68.0576 17.9273 71.7273 23.0552C74.8875 27.4698 79.1216 29.9103 83.6156 32.5329C89.3455 35.8825 98.0449 39.8543 101.108 46.3825C103.392 51.2468 95.9664 58.4786 93.4306 61.8489C90.7786 65.3696 88.7811 69.5428 86.0442 72.9393C81.7252 78.2989 74.7268 82.6143 68.9486 85.9073C63.331 89.1107 56.0361 92.6562 49.6634 92.4451C45.4751 92.3072 44.6782 85.481 43.7846 82.1466C42.5043 77.4064 40.8021 73.1586 37.1454 69.9346C33.4235 66.6526 29.0366 65.1061 24.425 63.7527C22.0577 63.0629 19.3574 62.5249 17.2397 61.1315C14.9 59.6153 14.8464 57.5529 14.6112 54.8655Z" stroke="#99BCC5" stroke-width="0.2"/>
<path fill-rule="evenodd" clip-rule="evenodd" d="M18.7911 50.8356C18.825 44.7953 20.1337 38.3541 24.0141 33.6948C27.2461 29.8139 32.3051 28.5166 35.399 24.5493C37.8497 21.4083 39.0972 16.9989 40.7379 13.3514C42.7446 8.88153 45.582 1.07307 50.5719 -0.478187C55.442 -1.98826 59.7496 6.61231 61.6169 10.0155C64.3515 15.0056 66.5652 20.295 69.3245 25.2714C71.4861 29.1756 74.1295 31.6919 77.6493 34.2083C81.781 37.1639 87.5458 40.438 89.7529 45.3279C91.3442 48.8684 87.4924 54.5256 86.0938 57.6446C85.1563 59.7395 84.2981 61.8674 83.8268 64.138C83.4595 65.9061 83.4231 67.5425 82.3592 69.0608C79.6806 72.8799 73.8079 73.3783 69.8232 74.6371C64.5312 76.3078 58.9162 78.2064 53.3781 78.5688C49.9742 78.7953 48.2371 75.4855 46.2943 73.1572C43.9986 70.4048 40.7483 68.4252 37.9096 66.3482C34.1633 63.6026 30.0862 61.8948 25.8684 60.1459C23.966 59.3565 21.7314 58.5823 20.2574 57.0131C18.7182 55.3864 18.7794 53.0156 18.7911 50.8356Z" stroke="#99BCC5" stroke-width="0.2"/>
<path fill-rule="evenodd" clip-rule="evenodd" d="M23.1813 47.2497C23.8539 42.1766 25.9499 37.328 29.4902 33.7418C32.2041 30.9884 35.8083 29.4383 37.9864 26.1301C40.016 23.0464 41.4303 19.54 43.1066 16.2429C44.8806 12.7571 47.5163 6.93107 51.608 5.98254C56.0177 4.96105 59.4146 10.8381 61.2956 14.0953C63.6719 18.2115 65.4772 22.6403 67.6019 26.8983C69.2026 30.072 71.2443 32.9746 73.6593 35.5094C76.192 38.1815 79.6267 40.7408 80.908 44.4151C82.0408 47.6695 79.9213 51.6068 79.5472 54.9067C79.147 58.4324 79.8483 62.1356 77.6297 65.1629C73.0545 71.4061 61.5719 70.2483 55.0075 70.3819C48.5304 70.5196 43.3229 66.6993 38.0816 63.0649C34.6195 60.6653 31.014 58.6334 27.4646 56.3976C23.8461 54.1165 22.5895 51.7142 23.1813 47.2497Z" stroke="#99BCC5" stroke-width="0.2"/>
<path fill-rule="evenodd" clip-rule="evenodd" d="M27.2601 44.3461C29.2492 36.9967 35.4615 33.0906 39.9026 27.5365C43.5363 22.9897 46.261 13.5735 52.3807 12.328C59.3287 10.9143 63.488 23.3906 65.9036 28.2048C68.5839 33.5439 73.3576 37.8868 75.3427 43.5387C76.3861 46.5052 75.4901 49.2732 74.9345 52.2383C74.3254 55.4942 73.8676 58.823 71.765 61.4436C67.6265 66.6009 59.5439 66.5651 53.7228 66.707C47.697 66.8544 42.3664 63.3202 37.5653 59.793C32.4734 56.0577 25.2228 51.8829 27.2601 44.3461Z" stroke="#99BCC5" stroke-width="0.2"/>
<path fill-rule="evenodd" clip-rule="evenodd" d="M30.5916 42.3532C32.8328 37.117 37.5427 32.8601 41.3644 28.8415C44.5542 25.4913 47.9858 18.7471 52.8493 18.2664C58.5655 17.6993 62.0299 24.901 64.279 29.3168C66.4927 33.6558 69.6825 38.2373 70.9083 42.9996C72.1866 47.9605 68.7826 54.6417 65.5363 58.1522C61.9156 62.0666 55.9918 63.513 50.9089 63.3569C45.5868 63.198 40.7036 59.9628 36.673 56.6072C32.3638 53.02 27.9851 48.4317 30.5916 42.3532Z" stroke="#99BCC5" stroke-width="0.2"/>
<path fill-rule="evenodd" clip-rule="evenodd" d="M33.6828 41.3675C35.8237 37.0123 39.5347 33.3282 42.9565 30.042C45.5971 27.5049 49.4935 23.1909 53.3032 23.0853C57.4942 22.9687 61.0462 26.5897 62.7123 30.3013C64.3548 33.9621 66.0854 38.5519 66.3313 42.5681C66.8652 51.314 55.9951 61.1109 47.8326 60.3137C40.0936 59.5577 29.4142 50.0448 33.6828 41.3675Z" stroke="#99BCC5" stroke-width="0.2"/>
<path fill-rule="evenodd" clip-rule="evenodd" d="M36.5416 40.8874C39.4951 35.213 46.6691 27.1234 53.3108 26.9313C60.9344 26.7117 62.8482 35.7139 61.8545 42.2377C60.845 48.896 52.0556 58.5335 45.0472 57.2312C38.207 55.9605 33.0414 47.617 36.5416 40.8874Z" stroke="#99BCC5" stroke-width="0.2"/>
<path fill-rule="evenodd" clip-rule="evenodd" d="M39.5601 39.9697C42.0607 35.2187 47.3968 29.2843 52.9622 29.1047C59.5936 28.8922 59.4685 36.4925 57.9648 41.223C56.4011 46.1345 49.5143 54.5232 43.7078 53.1987C38.0616 51.9057 37.1637 44.5234 39.5601 39.9697Z" stroke="#99BCC5" stroke-width="0.2"/>
<path fill-rule="evenodd" clip-rule="evenodd" d="M42.1891 39.4229C43.8397 36.0328 47.9707 31.7481 51.8979 31.611C56.698 31.4463 55.7649 37.4745 54.5247 40.384C53.0505 43.8461 48.1093 49.8619 43.9626 48.887C39.8799 47.9273 40.8274 42.2162 42.1891 39.4229Z" stroke="#99BCC5" stroke-width="0.2"/>
<path fill-rule="evenodd" clip-rule="evenodd" d="M267.995 233.121C257.37 239.923 245.359 245.537 234.033 251.244C217.481 259.582 200.686 267.696 183.294 273.908C173.97 277.237 161.887 282.037 151.882 279.428C148.224 278.475 144.888 275.592 141.608 273.718C137.085 271.134 132.496 268.678 127.915 266.217C118.725 261.284 109.506 256.4 100.474 251.15C96.1246 248.621 91.9045 245.437 87.3766 243.279C84.7305 242.018 81.5642 242.608 78.7369 242.688C72.1876 242.874 65.6423 243.226 59.097 243.526C51.091 243.892 43.0668 244.281 35.0518 244.137C31.4368 244.071 22.5832 244.747 20.5931 241.462C19.5224 239.693 22.0459 236.503 23.2157 235.026C25.3635 232.313 27.8322 229.869 30.2683 227.449C35.9021 221.852 41.8853 216.523 46.8931 210.271C49.4661 207.058 52.8372 203.131 51.1575 198.744C49.4622 194.313 46.5253 190.476 44.7335 186.06C42.6704 180.978 41.8149 175.689 40.8407 170.3C40.1195 166.318 38.4399 162.789 36.8606 159.117C35.1157 155.059 33.3082 150.966 32.0966 146.686C31.2959 143.859 30.0036 138.773 32.8048 136.983C36.7849 134.438 44.2484 136.498 48.7854 137.248C55.0555 138.283 61.28 139.601 67.5332 140.736C72.0729 141.561 76.6281 142.466 81.2434 142.563C88.6833 142.718 96.148 142.18 103.568 141.68C117.309 140.752 130.95 139.495 144.737 139.495C156.815 139.495 184.727 154.239 191.261 156.835C204.302 162.017 217.69 166.93 230.031 173.825C233.369 175.692 238.507 178.179 240.264 182.022C241.348 184.389 240.849 185.758 243.406 187.284C246.893 189.365 251.361 190.183 255.221 191.114C261.437 192.614 267.702 193.883 273.948 195.241C286.579 197.98 299.125 201.079 311.704 204.06C315.507 204.961 320.108 205.16 323.734 206.748C326.07 207.767 325.828 209.051 324.019 210.6C320.846 213.319 316.399 214.828 312.651 216.378C307.16 218.65 301.578 220.676 295.994 222.674C290.41 224.671 284.797 226.607 279.21 228.609C275.519 229.926 271.311 230.998 267.995 233.121Z" stroke="#99BCC5" stroke-width="0.2"/>
<path fill-rule="evenodd" clip-rule="evenodd" d="M259.251 231.625C248.013 238.44 235.538 243.87 223.511 249.167C208.119 255.951 192.379 262.309 176.162 266.55C166.64 269.038 155.405 271.785 145.676 268.932C142.205 267.914 139.611 265.625 136.636 263.606C133.245 261.301 129.723 259.189 126.201 257.11C118.951 252.831 111.625 248.698 104.222 244.71C100.301 242.59 95.9848 239.751 91.5551 239.015C88.0333 238.429 84.0327 239.277 80.4952 239.523C74.1245 239.967 67.7552 240.424 61.382 240.813C54.0278 241.261 46.6528 241.674 39.283 241.602C35.1755 241.562 28.1239 242.222 25.219 239.421C22.6846 236.977 31.9119 228.138 33.5345 226.459C38.6021 221.215 43.9318 216.222 48.6485 210.615C51.436 207.308 54.83 203.287 56.0053 198.904C57.0057 195.169 55.0752 190.914 53.9352 187.461C52.5095 183.136 51.359 178.653 49.7025 174.42C48.2272 170.648 45.8793 167.287 43.817 163.858C41.5487 160.086 39.2517 156.252 37.5677 152.137C36.5359 149.604 34.8285 145.364 36.879 142.95C39.2478 140.167 46.5497 141.986 49.5512 142.382C55.64 143.198 61.682 144.41 67.7291 145.496C77.7729 147.298 87.3485 148.874 97.5762 148.497C110.895 148.004 124.201 146.843 137.518 146.201C142.435 145.962 147.431 145.48 152.353 145.74C155.174 145.89 157.323 146.799 158.963 148.851C161.204 151.65 166.366 153.2 169.956 154.807C175.553 157.31 181.22 159.638 186.872 161.997C199.28 167.177 211.926 172.17 223.693 178.87C227.415 180.989 231.678 183.351 234.432 186.852C235.968 188.804 235.581 190.685 236.519 192.76C237.76 195.489 241.843 196.721 244.284 197.613C248.994 199.338 253.897 200.494 258.762 201.577C269.771 204.027 280.807 205.637 291.994 206.823C294.616 207.099 304.94 208.054 299.518 212.655C293.527 217.74 284.876 220.233 277.823 223.098C271.47 225.675 265.111 228.072 259.251 231.625Z" stroke="#99BCC5" stroke-width="0.2"/>
<path fill-rule="evenodd" clip-rule="evenodd" d="M243.72 230.364C233.156 236.361 221.453 240.834 210.076 245.113C196.27 250.306 182.118 254.935 167.638 257.527C158.542 259.155 148.513 260.405 139.478 257.701C133.308 255.855 128.536 250.864 123.117 247.431C117.698 243.998 112.059 240.775 106.252 238.088C102.648 236.421 98.7715 234.741 94.7614 234.962C85.011 235.495 75.2724 236.768 65.5116 237.385C59.0544 237.798 52.5842 238.138 46.1075 238.036C42.2019 237.975 36.8363 238.223 33.3786 236.055C29.5565 233.658 49.9073 213.187 51.8308 210.883C56.6531 205.105 62.4926 197.438 61.5603 189.222C60.6684 181.367 56.8032 175.503 52.4314 169.349C49.9504 165.848 41.9942 156.496 44.9427 151.943C46.6272 149.341 52.1794 150.242 54.8171 150.419C60.0155 150.768 65.1851 151.519 70.3561 152.171C77.8957 153.116 85.643 154.576 93.2153 155.004C98.4881 155.301 103.792 154.903 109.074 154.895C116.648 154.884 124.221 154.945 131.795 155.016C138.154 155.077 144.567 155.016 150.904 155.66C154.844 156.056 157.834 156.946 160.66 159.46C163.118 161.648 166.828 162.928 169.962 164.319C175.138 166.615 180.382 168.743 185.609 170.905C196.553 175.433 207.623 179.867 218.098 185.526C222.879 188.108 230.919 191.723 232.041 197.983C232.446 200.24 232.743 201.215 234.833 202.499C237.798 204.32 241.35 205.141 244.677 205.855C252.433 207.519 260.414 207.27 268.158 208.916C271.311 209.594 275.429 211.057 271.828 214.408C267.628 218.327 261.513 220.481 256.48 222.902C253.968 224.11 251.38 225.241 248.994 226.715C247.162 227.851 245.594 229.308 243.72 230.364Z" stroke="#99BCC5" stroke-width="0.2"/>
<path fill-rule="evenodd" clip-rule="evenodd" d="M223.712 228.492C213.952 233.362 203.353 236.903 192.944 240.095C181.382 243.636 169.542 246.569 157.545 247.817C149.261 248.681 140.434 248.936 132.394 246.29C127.31 244.616 123.863 241.096 119.487 238.144C112.884 233.682 105.74 230.147 97.8063 231.007C88.9122 231.97 79.9891 232.692 71.0368 233.174C65.6367 233.464 60.2158 233.682 54.8092 233.48C51.3908 233.353 46.9868 233.139 44.013 231.505C40.034 229.317 54.98 212.666 56.843 210.239C61.4635 204.221 64.8506 197.906 66.8296 190.449C68.4436 184.364 65.1465 179.581 61.7451 175.029C59.6304 172.203 52.7976 165.094 54.937 161.423C56.1104 159.399 59.9772 159.504 62.0541 159.4C66.0122 159.205 69.9873 159.409 73.9454 159.498C79.79 159.636 86.0114 158.689 91.8065 159.451C104.65 161.139 117.46 162.601 130.383 163.757C137.506 164.395 144.673 164.974 151.733 166.202C154.267 166.643 156.885 167.111 159.286 168.109C160.831 168.75 161.674 169.842 162.977 170.739C169.193 175.005 177.308 177.2 184.309 179.934C193.616 183.569 202.973 187.147 212.033 191.44C216.798 193.699 223.454 196.294 226.732 200.903C227.723 202.296 227.301 203.41 227.924 204.749C228.641 206.293 230.82 206.754 232.226 207.184C235.419 208.161 248.784 209.64 242.625 215.374C239.686 218.106 235.942 219.858 232.629 222.005C231.43 222.783 230.26 223.564 229.26 224.614C227.588 226.373 225.94 227.377 223.712 228.492Z" stroke="#99BCC5" stroke-width="0.2"/>
<path fill-rule="evenodd" clip-rule="evenodd" d="M202.393 226.384C183.126 234.263 160.546 239.631 139.54 238.591C132.555 238.244 125.039 237.085 118.983 233.121C115.413 230.779 112.56 228.136 108.271 227.29C105.175 226.68 101.841 227.373 98.7262 227.624C94.2151 227.987 89.7015 228.312 85.1839 228.575C79.5833 228.896 73.9644 229.144 68.3533 229.012C64.3439 228.917 58.8074 229.024 55.3244 226.752C51.1661 224.041 61.7507 211.324 63.24 209.058C66.8497 203.566 69.3802 198.245 70.2947 191.626C70.5638 189.698 71.4705 187.721 71.3529 185.778C71.2301 183.793 70.0713 182.025 69.0013 180.465C67.6021 178.419 62.7475 173.568 64.1375 171.073C64.9057 169.696 67.789 169.522 69.2835 169.23C72.0871 168.679 74.9311 168.383 77.7517 167.945C82.5371 167.199 87.2885 164.767 92.0909 164.836C105.005 165.018 118.106 169.244 130.761 171.565C138.284 172.949 145.859 174.206 153.291 176.08C155.643 176.674 158.065 177.288 160.3 178.295C161.86 178.998 162.862 180.25 164.307 181.036C169.847 184.057 176.219 185.891 182.168 187.924C189.892 190.569 197.641 193.133 205.311 195.949C210.119 197.713 216.301 199.266 220.444 202.539C223.469 204.929 221.401 205.643 219.805 207.869C218.99 209.004 219.178 210.123 218.824 211.408C218.318 213.243 216.889 214.564 215.548 215.751C213.7 217.392 211.237 218.743 209.726 220.754C209.193 221.462 209.218 222.341 208.786 222.958C207.532 224.756 204.205 225.643 202.393 226.384Z" stroke="#99BCC5" stroke-width="0.2"/>
<path fill-rule="evenodd" clip-rule="evenodd" d="M181.908 223.577C166.271 228.531 148.872 231.351 132.342 230.042C126.591 229.586 120.805 228.526 115.448 226.199C113.01 225.144 111.181 223.967 108.51 223.903C102.313 223.757 96.0963 224.269 89.9006 224.391C85.4667 224.479 81.0106 224.511 76.5872 224.135C73.6295 223.884 69.6298 223.584 67.2068 221.67C63.6858 218.882 70.0419 209.406 71.3356 206.788C73.4795 202.446 75.6065 197.619 74.7562 192.596C74.4954 191.059 74.0337 189.702 73.9738 188.135C73.9164 186.789 74.0768 185.546 73.6243 184.259C73.0648 182.663 70.5766 180.187 71.4321 178.718C72.015 177.715 73.7442 177.668 74.8945 177.347C76.76 176.827 78.5815 176.144 80.3403 175.305C82.1921 174.418 83.7688 173.047 85.6871 172.314C88.8013 171.126 92.2871 171.014 95.5604 171.02C108.621 171.042 121.847 173.761 134.576 176.603C141.205 178.083 147.87 179.661 154.312 181.906C156.268 182.588 158.485 183.273 160.205 184.532C161.279 185.316 162.006 186.298 163.226 186.888C173.641 191.923 185.683 193.793 196.741 197.429C199.619 198.376 215.569 203.159 207.23 207.658C202.163 210.392 196.81 211.634 192.187 215.374C190.778 216.511 189.839 217.452 189.289 219.187C188.927 220.342 189.799 219.756 188.581 220.963C187.104 222.414 183.73 223 181.908 223.577Z" stroke="#99BCC5" stroke-width="0.2"/>
<path fill-rule="evenodd" clip-rule="evenodd" d="M165.649 220.648C147.341 224.691 127.953 224.883 109.356 221.299C104.668 220.396 99.7892 220.612 95.0435 220.383C90.4326 220.163 82.2346 220.62 78.8856 216.879C76.4572 214.167 79.0922 208.404 80.0037 205.37C81.1649 201.505 82.1797 197.513 80.2731 193.759C79.1563 191.561 77.6263 189.469 76.4284 187.291C75.8557 186.251 74.6761 184.657 75.1678 183.672C75.9812 182.047 79.7866 181.363 81.6331 180.596C87.5347 178.147 93.7842 177.522 100.094 177.539C111.748 177.571 123.462 179.253 134.894 181.533C140.154 182.583 145.487 183.703 150.559 185.527C153.43 186.559 155.547 188.55 158.288 189.73C167.113 193.533 176.596 195.565 185.573 199.042C188.171 200.049 197.877 203.401 192.988 207.354C188.254 211.18 181.349 210.726 176.427 214.325C175.87 214.737 175.181 215.231 174.858 215.897C174.667 216.295 175.003 217.054 174.858 217.28C173.346 219.744 167.973 220.135 165.649 220.648Z" stroke="#99BCC5" stroke-width="0.2"/>
<path fill-rule="evenodd" clip-rule="evenodd" d="M153.787 217.975C144.395 219.335 134.796 219.672 125.246 219.757C120.025 219.804 114.29 220.155 109.182 218.76C106.044 217.901 103.013 217.149 99.7787 216.608C96.2984 216.025 90.6949 215.601 88.5756 212.442C86.9923 210.081 88.0774 205.228 88.135 202.358C88.1964 199.21 87.5845 196.875 85.4783 194.622C84.1539 193.203 78.0784 188.054 78.7805 186.569C79.4486 185.154 83.682 184.937 85.5123 184.57C91.2976 183.404 97.16 182.998 103.045 183.062C112.158 183.158 121.306 184.139 130.278 185.824C133.987 186.525 137.82 187.25 141.363 188.649C143.749 189.593 145.739 191.265 148.109 192.241C154.897 195.038 162.075 196.937 168.887 199.786C171.073 200.702 178.195 203.14 176.488 206.897C175.064 210.034 170.221 210.988 167.842 213.091C163.794 216.677 158.949 217.229 153.787 217.975Z" stroke="#99BCC5" stroke-width="0.2"/>
<path fill-rule="evenodd" clip-rule="evenodd" d="M147.871 216.173C140.42 217.073 132.796 217.466 125.236 217.485C120.357 217.498 115.21 217.568 110.422 216.411C108.017 215.83 105.927 214.472 103.651 213.503C101.307 212.507 98.0729 211.395 97.0599 209.111C96.108 206.965 96.4635 203.833 95.6276 201.245C94.8841 198.949 93.3281 197.53 91.6523 195.978C90.5845 194.986 85.1014 190.692 85.7355 189.743C86.4152 188.728 89.7082 188.811 91.4218 188.67C96.143 188.277 100.881 188.151 105.615 188.295C112.076 188.504 118.586 189.087 124.935 190.408C129.439 191.344 132.836 193.573 137.036 195.207C142.476 197.33 148.111 199.009 153.499 201.332C156.184 202.489 160.158 203.978 161.533 206.965C162.062 208.11 162.575 211.021 161.987 212.166C161.28 213.542 158.648 214.125 157.406 214.479C154.294 215.361 151.037 215.79 147.871 216.173Z" stroke="#99BCC5" stroke-width="0.2"/>
</svg>
